<svg xmlns="http://www.w3.org/2000/svg" xmlns:xlink="http://www.w3.org/1999/xlink" viewBox="0 0 800.48 181.75"><defs><style>.cls-1{fill:url(#Gradiente_sem_nome_11);}.cls-2{fill:url(#Gradiente_sem_nome_11-2);}.cls-3{fill:url(#Gradiente_sem_nome_11-3);}.cls-4{fill:url(#Gradiente_sem_nome_11-4);}.cls-5{fill:url(#Gradiente_sem_nome_11-5);}.cls-6{fill:url(#Gradiente_sem_nome_11-6);}.cls-7{fill:url(#Gradiente_sem_nome_11-7);}.cls-8{fill:url(#Gradiente_sem_nome_11-8);}.cls-9{fill:url(#Gradiente_sem_nome_11-9);}.cls-10{fill:url(#Gradiente_sem_nome_11-10);}</style><linearGradient id="Gradiente_sem_nome_11" x1="548.75" y1="89.89" x2="635.22" y2="89.89" gradientTransform="matrix(1, 0, 0.19, 1, 146.01, 0)" gradientUnits="userSpaceOnUse"><stop offset="0.01" stop-color="#f9b000"></stop><stop offset="1" stop-color="#fdfd01"></stop></linearGradient><linearGradient id="Gradiente_sem_nome_11-2" x1="185.42" y1="89.79" x2="310.36" y2="89.79" xlink:href="#Gradiente_sem_nome_11"></linearGradient><linearGradient id="Gradiente_sem_nome_11-3" x1="429.38" y1="91.09" x2="510.24" y2="91.09" xlink:href="#Gradiente_sem_nome_11"></linearGradient><linearGradient id="Gradiente_sem_nome_11-4" x1="498.06" y1="89.87" x2="545.27" y2="89.87" xlink:href="#Gradiente_sem_nome_11"></linearGradient><linearGradient id="Gradiente_sem_nome_11-5" x1="374.76" y1="55.54" x2="429.38" y2="55.54" xlink:href="#Gradiente_sem_nome_11"></linearGradient><linearGradient id="Gradiente_sem_nome_11-6" x1="297.26" y1="89.98" x2="407.7" y2="89.98" xlink:href="#Gradiente_sem_nome_11"></linearGradient><linearGradient id="Gradiente_sem_nome_11-7" x1="61.2" y1="89.51" x2="172.9" y2="89.51" xlink:href="#Gradiente_sem_nome_11"></linearGradient><linearGradient id="Gradiente_sem_nome_11-8" x1="0" y1="90.88" x2="198.35" y2="90.88" gradientTransform="matrix(1, 0, 0, 1, 0, 0)" xlink:href="#Gradiente_sem_nome_11"></linearGradient><linearGradient id="Gradiente_sem_nome_11-9" x1="143.38" y1="68.35" x2="143.36" y2="-10.68" gradientTransform="matrix(1, 0, 0, 1, 0, 0)" xlink:href="#Gradiente_sem_nome_11"></linearGradient><linearGradient id="Gradiente_sem_nome_11-10" x1="2542.99" y1="-2565.79" x2="2542.99" y2="-2486.81" gradientTransform="translate(2597.96 -2380.9) rotate(180)" xlink:href="#Gradiente_sem_nome_11"></linearGradient></defs><g id="Camada_2" data-name="Camada 2"><g id="Camada_1-2" data-name="Camada 1"><path class="cls-1" d="M799.16,108.15c-1.8-6.51-5.71-12.12-12-17.15A66,66,0,0,0,771,81.69c-2.24-.94-4.5-1.85-6.69-2.73s-4.74-1.89-7.06-2.88a41.11,41.11,0,0,1-10-5.66,9.74,9.74,0,0,1-3.73-9.11c.15-1.77.78-4.39,4.55-6.76a14.36,14.36,0,0,1,11.13-1.79c5.88,1.24,9.34,4.41,10.92,10,.09.31.15.62.22.94s.1.48.16.73L772,70.53,780.82,68a14.54,14.54,0,0,0,9.93-18.51,11,11,0,0,0-.51-1.34,34,34,0,0,0-13.5-14.45A39.83,39.83,0,0,0,759,28.35c-10-.74-18.88,1.65-26.43,7.09a32.22,32.22,0,0,0-12.42,35.25c1.92,7.2,6.1,13.33,12.76,18.75A68,68,0,0,0,749.22,99c2.29,1,4.62,1.94,6.87,2.86s4.44,1.81,6.62,2.75A44.17,44.17,0,0,1,773,110.57a7.71,7.71,0,0,1,2.37,8.69,10.91,10.91,0,0,1-5.37,5.57,21.2,21.2,0,0,1-10.15,2.54,26.19,26.19,0,0,1-6.08-.75,16.1,16.1,0,0,1-10.41-7.27.64.64,0,0,1-.06-.1,14.83,14.83,0,0,0-17.13-7.81l-8.89,2.49.61,4.79a30.82,30.82,0,0,0,2,7.6c3.55,8.71,9.89,15.46,18.83,20.06a45.94,45.94,0,0,0,21.2,5.18,50.83,50.83,0,0,0,11.29-1.3,39.21,39.21,0,0,0,20.44-11.33C799.74,130.28,802.34,119.63,799.16,108.15Z"></path><path class="cls-2" d="M470.59,73.58c-.65-2.24-1.37-4.46-2.17-6.59A36.21,36.21,0,0,0,467,63.44a38.57,38.57,0,0,0-3.18-5.83h0a62.27,62.27,0,0,0-53.34-29.46c-34.55,0-61.15,27.05-60.57,61.57a62.57,62.57,0,0,0,62.79,61.73h0a61,61,0,0,0,30.58-8,44.6,44.6,0,0,0,5.5-4.11,13.25,13.25,0,0,0-1.18-21.05l-6.43-4.44-3.41,3.29a36.65,36.65,0,0,1-25.48,10.14h-.11a37.27,37.27,0,0,1-26.44-10.85,38,38,0,0,1-5.21-6.49h0a1.62,1.62,0,0,0-.1-.18,38,38,0,0,1-4.48-10.11h.18C370.3,80,381.34,67.3,381.34,67.3h0a36,36,0,0,1,29.5-15h.09a37.85,37.85,0,0,1,35.4,24.45H395.88a11.72,11.72,0,0,0-11.76,11.88,39.67,39.67,0,0,0,1.69,11h65.11A20.36,20.36,0,0,0,470.59,73.58Z"></path><path class="cls-3" d="M678.41,114c-1.63,1.36-18.48,11.76-20.57,12.59a32.72,32.72,0,0,1-20.28,1.24A17.67,17.67,0,0,1,625.77,119a25.51,25.51,0,0,1-3.14-12.39q-.51-25.51-1-51l-.49-27.41H609.75a13.55,13.55,0,0,0-13.6,13.75l.45,40.18h0l.45,24.56a58.74,58.74,0,0,0,2.25,15.2c4.68,16.1,15.11,26.32,31,30.38A56.94,56.94,0,0,0,644.36,154a37.06,37.06,0,0,0,4-.33c8.88-1.08,34.75-4,30.3-26.87Z"></path><path class="cls-4" d="M685.13,28.2A13.55,13.55,0,0,0,671.53,42l.14,7.54q.27,14.66.52,29.3h0L673.43,146l.1,5.5H699L696.76,28.2Z"></path><path class="cls-5" d="M544.18,82.56l36.75-54h-15.3a17.51,17.51,0,0,0-14.51,7.64l-16,23.59a9.08,9.08,0,0,0,.18,10.38Z"></path><path class="cls-6" d="M555.62,113,526.51,72.34h0L512,52.13l-2.67-3.73h0l-8.77-12.25a18.26,18.26,0,0,0-14.79-7.64H470.5l44,61.47-41.79,61.46h24.62l29.8-43.83,31.39,43.83h24.62L555.62,113Z"></path><path class="cls-7" d="M332.42,74.32a58.93,58.93,0,0,0-1.92-14c-4.23-15.86-14.17-26.12-29.55-30.5a58.47,58.47,0,0,0-26-1.06,44.19,44.19,0,0,0-17.5,6.83l-.1-5.35H244.73a12.14,12.14,0,0,0-12.18,12.4l1.73,95.58a13.35,13.35,0,0,0,13.29,13.07h12l-.43-23.77q-.39-21.39-.78-42.78a47.76,47.76,0,0,1,2-16c2.24-6.8,6.09-11.29,11.78-13.74a31.73,31.73,0,0,1,20.66-1.46A17.4,17.4,0,0,1,305.18,64a29.49,29.49,0,0,1,2.21,11.58l1.13,62.65a13.34,13.34,0,0,0,13.29,13.06h12l-.45-24.78Q332.92,100.4,332.42,74.32Z"></path><path class="cls-8" d="M149.3,67.22l1.5,95.89a2,2,0,0,0,3,1.69l32.32-18.66a2,2,0,0,0,1-1.72V47.66a2,2,0,0,0-3-1.71L150.29,65.47A2,2,0,0,0,149.3,67.22Zm-.75-48.29L149,49.81a2,2,0,0,0,3,1.68l26.5-15.3a2,2,0,0,0,0-3.43l-27-15.57A2,2,0,0,0,148.55,18.93ZM60.3,115.68v0l0,.09,76.22,48.1a2,2,0,0,0,3-1.71l-1.47-94.3a2,2,0,0,0-.91-1.64L61.86,18a2,2,0,0,0-3.06,1.7Zm-46,20.13,33.81-19.52a2,2,0,0,0,1-1.75L47.56,18.65a2,2,0,0,0-3-1.69L12.27,35.62a2,2,0,0,0-1,1.72v96.75A2,2,0,0,0,14.25,135.81Zm32.1-5.55-26.5,15.31a2,2,0,0,0,0,3.43l27,15.57a2,2,0,0,0,3-1.74L49.32,132A2,2,0,0,0,46.35,130.26ZM148.2,181a5.62,5.62,0,0,1-5.81-.11L63.6,131.17a2,2,0,0,0-3,1.71l.68,43.19h0a5.51,5.51,0,0,1-.74,2.86A5.63,5.63,0,0,1,52.82,181L3.3,152.4A5.63,5.63,0,0,1,0,147.28V33H0a5.62,5.62,0,0,1,2.81-4.87L50,.84a5.63,5.63,0,0,1,6,.05l78.74,50.44a2,2,0,0,0,3.05-1.7l-.68-43.94h0A5.62,5.62,0,0,1,145.53.76l49.53,28.6a5.64,5.64,0,0,1,3.29,5.12V148.8h0a5.62,5.62,0,0,1-2.81,4.87L148.2,181Z"></path><path class="cls-9" d="M134.75,51.33l8.55,5.53L152,51.49a1.94,1.94,0,0,1-3-1.68l-.52-34.25H137.29l.51,34.07A2,2,0,0,1,134.75,51.33Z"></path><path class="cls-10" d="M63.6,131.17l-9.08-5.48-8.17,4.57a2,2,0,0,1,3,1.69l.52,35H61.07l-.51-34.08A2,2,0,0,1,63.6,131.17Z"></path></g></g></svg>